<svg xmlns="http://www.w3.org/2000/svg" width="96" height="96" viewBox="0 0 96 96">
  <g fill="none" fill-rule="evenodd">
    <circle cx="48" cy="48" r="48" fill="#30A3F1"/>
    <g fill="#FFFFFF" opacity=".7" transform="translate(21 16)">
      <path d="M27 30C35.2711757 30 42 23.2705436 42 15 42 6.72945638 35.2711757 0 27 0 18.7288243 0 12 6.72945638 12 15 12 23.2705436 18.7288243 30 27 30L27 30zM27.0003124 36C4.85127208 36 0 47.5158087 0 51.95256-5.54899572e-16 56.3641464 3.51803131 59 6.91923224 59L47.0807678 59C50.4819687 59 54 56.3641464 54 51.95256 54.0006248 47.5158087 49.1493527 36 27.0003124 36L27.0003124 36z"/>
    </g>
    <g fill="#30A3F1" transform="translate(40 23)">
      <path d="M0,7.99999995 C0,6.89543048 0.894513756,6 1.99406028,6 L14.0059397,6 C15.1072288,6 16,6.88772965 16,8 L16,8 C16,9.1045695 15.1054862,10 14.0059397,9.99999999 L1.99406028,9.99999992 C0.892771196,9.99999991 0,9.11227028 0,7.99999995 L0,7.99999995 Z"/>
      <path d="M1.60891561e-09,8 C1.60891561e-09,6.8954305 0.894513758,6 1.99406028,6 L14.0059397,6 C15.1072288,6 16,6.88772964 16,8 L16,8 C16,9.1045695 15.1054862,10 14.0059397,10 L1.99406028,10 C0.892771198,10 1.60891561e-09,9.11227036 1.60891561e-09,8 L1.60891561e-09,8 Z" transform="rotate(90 8 8)"/>
    </g>
  </g>
</svg>
